<svg width="1200" height="1200" viewBox="0 0 1200 1200" fill="none" xmlns="http://www.w3.org/2000/svg">
  <rect width="1200" height="1200" rx="240" fill="white"/>
  <path d="M48 240C48 134.02 134.02 48 240 48H960C1065.98 48 1152 134.02 1152 240V888C1152 993.98 1065.98 1080 960 1080H240C134.02 1080 48 993.98 48 888V240Z" fill="black"/>
  <path d="M96 894C96 957.513 147.487 1009 211 1009H989C1052.51 1009 1104 957.513 1104 894V934C1104 1007.45 1044.45 1067 971 1067H229C155.546 1067 96 1007.45 96 934V894Z" fill="white"/>
  <text x="600" y="664" text-anchor="middle" fill="white" font-family="Arial, Helvetica, sans-serif" font-size="340" font-weight="700" letter-spacing="-28">Cmd</text>
</svg>
